<svg xmlns="http://www.w3.org/2000/svg" viewBox="0 0 800 450" width="800" height="450">
  <defs>
    <linearGradient id="bg" x1="0" y1="0" x2="0" y2="1">
      <stop offset="0%" stop-color="#9b59b6"/>
      <stop offset="100%" stop-color="#3C3489"/>
    </linearGradient>
  </defs>
  <rect width="800" height="450" fill="url(#bg)"/>
  <!-- Mountains in background -->
  <polygon points="0,220 150,80 300,220" fill="#3C3489" opacity="0.7"/>
  <polygon points="100,220 280,60 450,220" fill="#085041" opacity="0.5"/>
  <polygon points="350,220 500,100 650,220" fill="#3C3489" opacity="0.6"/>
  <polygon points="500,220 680,90 800,220" fill="#085041" opacity="0.5"/>
  <!-- Urban buildings -->
  <rect x="60"  y="210" width="50"  height="140" fill="#9b59b6" opacity="0.85"/>
  <rect x="130" y="195" width="65"  height="155" fill="#7f8c8d" opacity="0.85"/>
  <rect x="215" y="205" width="55"  height="145" fill="#9b59b6" opacity="0.8"/>
  <rect x="290" y="185" width="70"  height="165" fill="#7f8c8d" opacity="0.85"/>
  <rect x="380" y="200" width="60"  height="150" fill="#9b59b6" opacity="0.85"/>
  <rect x="460" y="190" width="75"  height="160" fill="#7f8c8d" opacity="0.8"/>
  <rect x="555" y="205" width="60"  height="145" fill="#9b59b6" opacity="0.85"/>
  <rect x="635" y="195" width="55"  height="155" fill="#7f8c8d" opacity="0.85"/>
  <rect x="710" y="210" width="60"  height="140" fill="#9b59b6" opacity="0.8"/>
  <!-- Green corridors -->
  <rect y="348" width="800" height="5" fill="#3aad5c" opacity="0.8"/>
  <rect x="395" y="220" width="10" height="130" fill="#3aad5c" opacity="0.7"/>
  <text x="400" y="415" text-anchor="middle" font-family="sans-serif" font-size="20" font-weight="bold" fill="rgba(255,255,255,0.9)">Bogotá, Colombia</text>
  <text x="400" y="438" text-anchor="middle" font-family="sans-serif" font-size="13" fill="rgba(255,255,255,0.75)">Climate Action &amp; Social Inclusion</text>
</svg>