<svg xmlns="http://www.w3.org/2000/svg" viewBox="0 0 60 60">
  <!-- LIGHT VERSION — use on white/light backgrounds -->
  <rect width="60" height="60" rx="13" fill="#E1F5EE"/>
  <!-- buildings -->
  <rect x="8"  y="32" width="5" height="20" fill="#1D9E75" opacity="0.22"/>
  <rect x="14" y="20" width="5" height="32" fill="#1D9E75" opacity="0.22"/>
  <rect x="20" y="26" width="5" height="26" fill="#1D9E75" opacity="0.22"/>
  <rect x="26" y="12" width="6" height="40" fill="#1D9E75" opacity="0.28"/>
  <rect x="33" y="22" width="5" height="30" fill="#1D9E75" opacity="0.22"/>
  <rect x="39" y="18" width="5" height="34" fill="#1D9E75" opacity="0.22"/>
  <rect x="45" y="28" width="6" height="24" fill="#1D9E75" opacity="0.18"/>
  <!-- W2 wave -->
  <path d="M6 44 C10 44 13 36 18 34 C23 32 25 38 30 36 C35 34 38 22 43 20 C48 18 51 24 54 22"
        stroke="#1D9E75" stroke-width="2.5" stroke-linecap="round" fill="none"/>
  <circle cx="43" cy="20" r="2.5" fill="#1D9E75"/>
  <!-- baseline -->
  <line x1="6" y1="52" x2="54" y2="52" stroke="#9FE1CB" stroke-width="1" stroke-linecap="round"/>
</svg>